<svg xmlns="http://www.w3.org/2000/svg" width="24" height="24" viewBox="0 0 24 24" fill="none">
  <path d="M16.3585 16.239C19.092 16.239 21.1755 15.435 21.497 14.7355C21.615 14.4785 21.931 12.9345 21.931 12.9345C21.931 12.9345 21.622 12.8035 21.3775 12.738C19.9455 12.355 19.355 10.743 19.248 9.98651" stroke="#FAFFD8" stroke-width="1.5" stroke-miterlimit="10" stroke-linecap="round" stroke-linejoin="round"/>
  <path d="M5.79992 5.7995C3.98942 6.7895 2.70142 8.4215 2.70142 10.8315C2.70142 12.9145 3.01792 16.7535 4.31192 19.448C4.40692 19.6455 4.61142 19.7665 4.83042 19.7665H5.95142C6.24342 19.7665 6.48842 19.549 6.52092 19.259C6.66992 17.941 7.21442 16.5125 7.49642 15.9715C8.29542 16.6335 9.28692 16.8865 10.1964 16.964C11.0649 17.038 12.8224 16.7305 12.8224 16.7305C13.1359 17.773 13.7904 18.87 14.1734 19.4945C14.2779 19.665 14.4624 19.7665 14.6624 19.7665H15.2799" stroke="#FAFFD8" stroke-width="1.5" stroke-miterlimit="10" stroke-linecap="round" stroke-linejoin="round"/>
  <path d="M17.6925 7.04403C17.3045 6.69553 16.834 6.36453 16.309 6.06453C15.1095 5.37903 13.7665 4.98353 12.3945 4.82053L11.7485 4.74403C11.248 4.68453 10.744 4.65553 10.241 4.66203" stroke="#FAFFD8" stroke-width="1.5" stroke-miterlimit="10" stroke-linecap="round" stroke-linejoin="round"/>
  <path d="M17.7445 13.1885C18.1673 13.1885 18.51 12.8457 18.51 12.423C18.51 12.0002 18.1673 11.6575 17.7445 11.6575C17.3217 11.6575 16.979 12.0002 16.979 12.423C16.979 12.8457 17.3217 13.1885 17.7445 13.1885Z" fill="#FAFFD8"/>
  <path d="M2.54758 8.99748C0.748576 8.57648 0.333576 5.99147 1.45108 5.44897" stroke="#FAFFD8" stroke-width="1.5" stroke-miterlimit="10" stroke-linecap="round" stroke-linejoin="round"/>
  <path d="M19.248 9.98704L21.411 7.62454C21.5685 7.45404 21.5585 7.18854 21.388 7.03054C20.342 6.06304 18.66 5.99804 17.6925 7.04404" stroke="#FAFFD8" stroke-width="1.5" stroke-miterlimit="10" stroke-linecap="round" stroke-linejoin="round"/>
  <path d="M3 3L21 21" stroke="#FAFFD8" stroke-width="1.5" stroke-miterlimit="10" stroke-linecap="round" stroke-linejoin="round"/>
</svg>
