<svg xmlns="http://www.w3.org/2000/svg" width="405" height="339" viewBox="0 0 405 339" fill="none">
  <path d="M385.452 284.297C367.764 301.003 340.884 305.458 317.162 301.096C270.969 292.418 238.194 252.371 218.788 211.07C214.703 202.3 211.453 193.622 209.596 185.177C207.832 177.149 207.275 168.889 208.668 160.814C209.828 154.271 212.01 148.331 215.91 143.088C217.906 140.257 220.877 137.797 224.081 136.359C225.798 135.616 227.145 135.245 228.723 135.152C229.373 135.152 229.93 135.152 230.441 135.384C231.416 135.895 231.741 136.776 232.112 138.261C233.365 144.248 230.673 150.744 227.145 155.57C221.249 163.598 212.892 168.61 202.586 171.998C177.285 180.072 146.041 173.483 125.847 156.498C111.826 144.712 102.913 125.593 105.513 107.356C107.695 91.4855 120.322 76.3575 136.013 72.97C139.82 71.9491 145.298 72.3667 148.269 74.687C148.873 75.1974 149.105 75.4759 149.198 76.1719C149.152 76.3111 149.244 76.4039 149.198 76.5432C149.198 76.6824 149.105 76.868 149.105 77.0072C149.012 77.2392 148.966 77.4248 148.827 77.6569C148.78 77.7961 148.687 77.8889 148.641 78.0281L148.362 78.4458L148.223 78.6314C145.298 82.4366 140.47 84.7568 136.06 86.7522C89.3105 107.031 29.3301 82.9006 14.01 33.1547C4.49301 4.33741 8.7641 -29.3988 27.1482 -53.9469C29.4694 -57.1488 25.0126 -60.954 22.1808 -57.8449C-13.7517 -14.1317 -5.34894 58.3989 42.4682 90.2325C72.5512 110.883 113.173 115.941 146.784 101.138C152.866 98.539 158.947 94.7338 163.125 89.3045C168.232 82.947 169.578 73.6661 165.632 66.3341C159.783 55.429 146.366 51.6238 134.853 52.8767C110.573 55.8466 90.6104 75.5222 84.2966 98.7246C81.7897 107.913 81.4183 117.751 82.811 127.124C89.0783 168.749 125.568 195.85 165.214 202.486C199.94 208.75 242.418 197.195 259.224 163.645C269.762 143.459 266.605 115.43 244.229 104.664C225.613 95.9403 203.282 104.154 190.144 118.679C188.334 120.72 186.477 123.041 184.945 125.222C184.434 125.964 183.227 127.82 182.763 128.516C182.345 129.213 181.184 131.208 180.767 131.904C174.592 143.18 171.435 155.57 170.739 168.239C169.3 194.272 178.538 219.47 189.726 242.44C202.586 268.751 219.717 293.021 242.14 312.418C255.974 324.344 272.223 334.6 289.539 341.004C332.064 356.874 383.548 352.466 418.924 322.024C429.741 313.022 431.087 296.873 421.895 286.2C412.564 275.295 395.851 274.413 385.452 284.297Z" fill="url(#paint0_linear_292_4176)"/>
  <defs>
    <linearGradient id="paint0_linear_292_4176" x1="386" y1="3" x2="386" y2="347" gradientUnits="userSpaceOnUse">
      <stop stop-color="#03363A"/>
      <stop offset="1" stop-color="#012F32"/>
    </linearGradient>
  </defs>
</svg>
